:FULLY-SPECIFIED
:FORCE-ALL-JOINTS-BE-3DOF
:DEGREES
162
root 8.27557 16.5367 -14.1668 7.55713 9.03154 -0.369184
lfemur -0.413433 7.94436 -14.9257
ltibia 44.5984 0 0
lfoot 2.6097 7.65903 0
ltoes -14.9544 0 0
rfemur -29.9258 1.38898 23.0106
rtibia 31.8223 0 0
rfoot -10.8645 0.289261 0
rtoes -14.5882 0 0
lowerback -5.11324 -1.82271 -0.759524
upperback -1.61473 -2.42918 3.25465
thorax 1.38863 -1.21534 3.60752
lowerneck -18.6521 -6.90375 -14.5653
upperneck 14.9598 -8.38206 14.6241
head 9.04545 -3.37985 6.31372
lclavicle -1.36837e-16 -2.77415e-14 0
lhumerus -43.8571 -8.96413 95.3973
lradius 24.861 0 0
lwrist 1.31978 0 0
lhand -4.67171 -20.8618 0
lfingers 7.12502 0 0
lthumb 21.1081 8.00259 0
rclavicle -1.36837e-16 -2.77415e-14 0
rhumerus -45.7186 9.40192 -81.7743
rradius 33.5826 0 0
rwrist -17.675 0 0
rhand -28.6528 -24.3054 0
rfingers 7.12502 0 0
rthumb -2.01643 -54.2775 0
163
root 8.25806 16.576 -14.0437 7.6343 8.98519 -0.591007
lfemur -2.67084 8.06777 -14.9172
ltibia 47.6095 0 0
lfoot 1.76957 8.25377 0
ltoes -14.8049 0 0
rfemur -29.0968 1.47873 23.3659
rtibia 31.0691 0 0
rfoot -11.3665 0.439227 0
rtoes -14.4629 0 0
lowerback -5.04254 -1.69396 -0.58839
upperback -1.62145 -2.26652 3.31257
thorax 1.3254 -1.13285 3.58571
lowerneck -18.5963 -6.97437 -14.615
upperneck 14.8119 -8.48216 14.7342
head 9.00937 -3.42156 6.34317
lclavicle 5.30584e-16 -2.76397e-14 0
lhumerus -44.3661 -10.0076 95.9059
lradius 25.6741 0 0
lwrist 2.52964 0 0
lhand -4.32086 -20.77 0
lfingers 7.12502 0 0
lthumb 21.4455 8.06103 0
rclavicle 5.30584e-16 -2.76397e-14 0
rhumerus -45.4481 9.80524 -81.7882
rradius 34.0782 0 0
rwrist -18.0568 0 0
rhand -28.7971 -24.4116 0
rfingers 7.12502 0 0
rthumb -2.15573 -54.3824 0
164
root 8.24141 16.6129 -13.9209 7.70492 8.93052 -0.802779
lfemur -4.86801 8.1791 -14.9227
ltibia 50.4356 0 0
lfoot 0.939414 8.81702 0
ltoes -14.6384 0 0
rfemur -28.282 1.57053 23.7088
rtibia 30.3513 0 0
rfoot -11.862 0.581469 0
rtoes -14.3488 0 0
lowerback -4.9754 -1.56537 -0.425394
upperback -1.6231 -2.10374 3.36627
thorax 1.26988 -1.05043 3.56389
lowerneck -18.5475 -7.04253 -14.6602
upperneck 14.6728 -8.57875 14.8381
head 8.97647 -3.46166 6.37029
lclavicle 1.20726e-15 -2.74702e-14 0
lhumerus -44.8432 -10.9877 96.3799
lradius 26.4512 0 0
lwrist 3.6944 0 0
lhand -4.02007 -20.6919 0
lfingers 7.12502 0 0
lthumb 21.7347 8.11017 0
rclavicle 1.20726e-15 -2.74702e-14 0
rhumerus -45.1655 10.1759 -81.7902
rradius 34.572 0 0
rwrist -18.4266 0 0
rhand -28.9448 -24.5195 0
rfingers 7.12502 0 0
rthumb -2.29837 -54.4886 0
165
root 8.22567 16.6471 -13.798 7.76788 8.86717 -1.00285
lfemur -6.9841 8.27726 -14.9415
ltibia 53.0389 0 0
lfoot 0.130509 9.34196 0
ltoes -14.4554 0 0
rfemur -27.4867 1.66214 24.0387
rtibia 29.6803 0 0
rfoot -12.3435 0.716574 0
rtoes -14.2473 0 0
lowerback -4.91211 -1.43746 -0.271551
upperback -1.61902 -1.94153 3.41501
thorax 1.22296 -0.968397 3.54181
lowerneck -18.5067 -7.10771 -14.7004
upperneck 14.5437 -8.67106 14.9348
head 8.94707 -3.49978 6.39477
lclavicle 1.89012e-15 -2.72284e-14 0
lhumerus -45.2832 -11.8846 96.8105
lradius 27.1784 0 0
lwrist 4.79722 0 0
lhand -3.7774 -20.6291 0
lfingers 7.12502 0 0
lthumb 21.968 8.14893 0
rclavicle 1.89012e-15 -2.72284e-14 0
rhumerus -44.8708 10.507 -81.7784
rradius 35.0603 0 0
rwrist -18.7794 0 0
rhand -29.0949 -24.6291 0
rfingers 7.12502 0 0
rthumb -2.44334 -54.5964 0
166
root 8.21091 16.6779 -13.6749 7.82209 8.79479 -1.18958
lfemur -8.99827 8.36115 -14.9728
ltibia 55.3815 0 0
lfoot -0.645865 9.82178 0
ltoes -14.2562 0 0
rfemur -26.7164 1.75131 24.3552
rtibia 29.0676 0 0
rfoot -12.8038 0.84513 0
rtoes -14.1599 0 0
lowerback -4.85295 -1.31072 -0.127873
upperback -1.60856 -1.78057 3.45805
thorax 1.18553 -0.887108 3.51923
lowerneck -18.4751 -7.16938 -14.7348
upperneck 14.4255 -8.75834 15.0234
head 8.92148 -3.53555 6.41628
lclavicle 2.57608e-15 -2.69095e-14 0
lhumerus -45.6808 -12.6785 97.1888
lradius 27.8417 0 0
lwrist 5.82125 0 0
lhand -3.60088 -20.5836 0
lfingers 7.12502 0 0
lthumb 22.1377 8.17624 0
rclavicle 2.57608e-15 -2.69095e-14 0
rhumerus -44.564 10.7919 -81.7507
rradius 35.5392 0 0
rwrist -19.1105 0 0
rhand -29.2463 -24.7406 0
rfingers 7.12502 0 0
rthumb -2.5896 -54.7059 0
167
root 8.19718 16.7049 -13.5514 7.86646 8.71301 -1.36132
lfemur -10.8897 8.42965 -15.0159
ltibia 57.4255 0 0
lfoot -1.37843 10.2497 0
ltoes -14.0411 0 0
rfemur -25.9764 1.83578 24.6579
rtibia 28.5248 0 0
rfoot -13.2353 0.967724 0
rtoes -14.0882 0 0
lowerback -4.79821 -1.18567 0.0046251
upperback -1.59109 -1.62155 3.49466
thorax 1.1585 -0.806903 3.49591
lowerneck -18.4538 -7.227 -14.7627
upperneck 14.3192 -8.83981 15.103
head 8.90003 -3.5686 6.4345
lclavicle 3.26206e-15 -2.6509e-14 0
lhumerus -46.0308 -13.3498 97.506
lradius 28.4274 0 0
lwrist 6.74963 0 0
lhand -3.49856 -20.557 0
lfingers 7.12502 0 0
lthumb 22.2359 8.19102 0
rclavicle 3.26206e-15 -2.6509e-14 0
rhumerus -44.2453 11.0237 -81.7053
rradius 36.0048 0 0
rwrist -19.4149 0 0
rhand -29.3981 -24.8541 0
rfingers 7.12502 0 0
rthumb -2.73614 -54.8173 0
168
root 8.18454 16.7276 -13.4273 7.89987 8.62147 -1.51641
lfemur -12.6375 8.48168 -15.0702
ltibia 59.1331 0 0
lfoot -2.05591 10.6188 0
ltoes -13.8106 0 0
rfemur -25.2721 1.91331 24.9464
rtibia 28.0633 0 0
rfoot -13.6306 1.08494 0
rtoes -14.0334 0 0
lowerback -4.7482 -1.0628 0.124931
upperback -1.56596 -1.46516 3.52411
thorax 1.14277 -0.728125 3.4716
lowerneck -18.444 -7.28006 -14.7834
upperneck 14.2259 -8.91473 15.1728
head 8.88301 -3.59856 6.44914
lclavicle 3.94497e-15 -2.60221e-14 0
lhumerus -46.3279 -13.8786 97.753
lradius 28.9214 0 0
lwrist 7.56552 0 0
lhand -3.47851 -20.5512 0
lfingers 7.12502 0 0
lthumb 22.255 8.19219 0
rclavicle 3.94497e-15 -2.60221e-14 0
rhumerus -43.9146 11.1956 -81.6402
rradius 36.4534 0 0
rwrist -19.6879 0 0
rhand -29.5491 -24.9698 0
rfingers 7.12502 0 0
rthumb -2.88193 -54.9305 0
169
root 8.17304 16.7455 -13.3023 7.92123 8.5198 -1.65322
lfemur -14.2208 8.51612 -15.1348
ltibia 60.4663 0 0
lfoot -2.66703 10.9223 0
ltoes -13.5649 0 0
rfemur -24.6088 1.98164 25.2202
rtibia 27.6945 0 0
rfoot -13.9823 1.19737 0
rtoes -13.9971 0 0
lowerback -4.70319 -0.94264 0.23203
upperback -1.53251 -1.31208 3.54566
thorax 1.13923 -0.651119 3.44605
lowerneck -18.4467 -7.32801 -14.7963
upperneck 14.1464 -8.98234 15.2317
head 8.87075 -3.62506 6.45986
lclavicle 4.62174e-15 -2.54444e-14 0
lhumerus -46.5669 -14.2452 97.9211
lradius 29.3099 0 0
lwrist 8.25207 0 0
lhand -3.54876 -20.568 0
lfingers 7.12502 0 0
lthumb 22.1872 8.17868 0
rclavicle 4.62174e-15 -2.54444e-14 0
rhumerus -43.5721 11.3007 -81.5535
rradius 36.8811 0 0
rwrist -19.9247 0 0
rhand -29.6982 -25.0877 0
rfingers 7.12502 0 0
rthumb -3.02596 -55.0459 0
170
root 8.16264 16.7591 -13.1776 7.92885 8.40565 -1.76945
lfemur -15.6934 8.53908 -15.234
ltibia 61.4805 0 0
lfoot -3.2536 11.1622 0
ltoes -13.2736 0 0
rfemur -23.9892 2.0499 25.4744
rtibia 27.4261 0 0
rfoot -14.3277 1.2959 0
rtoes -13.99 0 0
lowerback -4.66097 -0.821703 0.323143
upperback -1.48724 -1.15729 3.5585
thorax 1.15003 -0.573472 3.42014
lowerneck -18.4675 -7.3734 -14.8003
upperneck 14.0817 -9.04574 15.2798
head 8.86509 -3.64929 6.46595
lclavicle 5.39505e-15 -2.47151e-14 0
lhumerus -46.7413 -14.4768 98.0159
lradius 29.6266 0 0
lwrist 8.85351 0 0
lhand -3.72338 -20.6105 0
lfingers 7.12502 0 0
lthumb 22.019 8.14836 0
rclavicle 5.39505e-15 -2.47151e-14 0
rhumerus -43.1973 11.3347 -81.4354
rradius 37.3014 0 0
rwrist -20.1331 0 0
rhand -29.8563 -25.2104 0
rfingers 7.12502 0 0
rthumb -3.17859 -55.1656 0
171
root 8.15321 16.7695 -13.0543 7.9227 8.27755 -1.86525
lfemur -17.1232 8.55674 -15.3879
ltibia 62.2652 0 0
lfoot -3.86262 11.3481 0
ltoes -12.9119 0 0
rfemur -23.4087 2.12811 25.7055
rtibia 27.2504 0 0
rfoot -14.7055 1.37256 0
rtoes -14.019 0 0
lowerback -4.61941 -0.696609 0.397263
upperback -1.42812 -0.995955 3.56286
thorax 1.17581 -0.492845 3.39484
lowerneck -18.5096 -7.4189 -14.7952
upperneck 14.0314 -9.10833 15.3182
head 8.86712 -3.67265 6.4672
lclavicle 6.35075e-15 -2.37914e-14 0
lhumerus -46.8523 -14.619 98.0528
lradius 29.9153 0 0
lwrist 9.42544 0 0
lhand -4.00394 -20.679 0
lfingers 7.12502 0 0
lthumb 21.7488 8.1008 0
rclavicle 6.35075e-15 -2.37914e-14 0
rhumerus -42.774 11.3022 -81.2803
rradius 37.7297 0 0
rwrist -20.3255 0 0
rhand -30.0331 -25.3398 0
rfingers 7.12502 0 0
rthumb -3.34935 -55.2914 0
172
root 8.14474 16.7767 -12.9323 7.90416 8.13651 -1.94262
lfemur -18.5109 8.56818 -15.59
ltibia 62.8342 0 0
lfoot -4.49055 11.4849 0
ltoes -12.4886 0 0
rfemur -22.8624 2.21531 25.9153
rtibia 27.1559 0 0
rfoot -15.1106 1.42959 0
rtoes -14.0797 0 0
lowerback -4.57895 -0.567993 0.456033
upperback -1.35671 -0.829021 3.55958
thorax 1.21521 -0.409684 3.3701
lowerneck -18.5704 -7.46416 -14.7821
upperneck 13.9943 -9.16978 15.3476
head 8.87605 -3.69507 6.46408
lclavicle 7.4605e-15 -2.2695e-14 0
lhumerus -46.906 -14.6794 98.037
lradius 30.177 0 0
lwrist 9.96807 0 0
lhand -4.37981 -20.7712 0
lfingers 7.12502 0 0
lthumb 21.3869 8.03752 0
rclavicle 7.4605e-15 -2.2695e-14 0
rhumerus -42.3081 11.21 -81.0928
rradius 38.1651 0 0
rwrist -20.5031 0 0
rhand -30.2264 -25.4749 0
rfingers 7.12502 0 0
rthumb -3.53595 -55.4225 0
173
root 8.1372 16.7811 -12.8113 7.87462 7.98353 -2.00357
lfemur -19.8569 8.57243 -15.8335
ltibia 63.2012 0 0
lfoot -5.13387 11.5776 0
ltoes -12.0125 0 0
rfemur -22.3452 2.31058 26.1057
rtibia 27.1312 0 0
rfoot -15.5375 1.46926 0
rtoes -14.1677 0 0
lowerback -4.54002 -0.436491 0.501099
upperback -1.27458 -0.657449 3.54948
thorax 1.26686 -0.32444 3.34584
lowerneck -18.6473 -7.50886 -14.7617
upperneck 13.9694 -9.22978 15.3688
head 8.89107 -3.71648 6.45707
lclavicle 8.69595e-15 -2.1448e-14 0
lhumerus -46.9085 -14.6656 97.974
lradius 30.4126 0 0
lwrist 10.4816 0 0
lhand -4.84031 -20.8848 0
lfingers 7.12502 0 0
lthumb 20.9435 7.96002 0
rclavicle 8.69595e-15 -2.1448e-14 0
rhumerus -41.8057 11.0648 -80.8772
rradius 38.6064 0 0
rwrist -20.6676 0 0
rhand -30.4336 -25.6149 0
rfingers 7.12502 0 0
rthumb -3.73609 -55.558 0
